<svg id="Layer_1" data-name="Layer 1" xmlns="http://www.w3.org/2000/svg" xmlns:xlink="http://www.w3.org/1999/xlink" viewBox="0 0 48.96 52.85"><defs><style>.cls-1{fill:none;}.cls-2{clip-path:url(#clip-path);}.cls-3{fill:#414042;}</style><clipPath id="clip-path" transform="translate(-7.48 -4.22)"><rect class="cls-1" x="-62.44" y="4.22" width="189.01" height="84.83"/></clipPath></defs><title>Cart Logo</title><g class="cls-2"><path class="cls-3" d="M53.23,7.58L47.5,16.24,44.35,21l-2.66,4-7,10.58a4.35,4.35,0,0,1-7.94-2.94l1.53-12.18,0.63-5.06,0.71-5.68,0.19-1.52a1,1,0,0,1,.94-0.83H53.14a0.1,0.1,0,0,1,.1.06,0.1,0.1,0,0,1,0,.12M31.16,51.49a18.1,18.1,0,0,1-5.55-35.33L24.9,21.84A13.2,13.2,0,1,0,43.52,28l2.9-4.38A18.09,18.09,0,0,1,31.16,51.49M56,6a3.3,3.3,0,0,0-2.91-1.74H30.76a4.14,4.14,0,0,0-4.1,3.62l-0.29,2.35a23.69,23.69,0,1,0,23.36,8.48l6.17-9.33A3.3,3.3,0,0,0,56,6" transform="translate(-7.48 -4.22)"/></g></svg>