<?xml version="1.0" encoding="iso-8859-1"?>
<!-- Generator: Adobe Illustrator 17.1.0, SVG Export Plug-In . SVG Version: 6.00 Build 0)  -->
<!DOCTYPE svg PUBLIC "-//W3C//DTD SVG 1.1//EN" "http://www.w3.org/Graphics/SVG/1.1/DTD/svg11.dtd">
<svg version="1.1" id="Capa_1" xmlns="http://www.w3.org/2000/svg" xmlns:xlink="http://www.w3.org/1999/xlink" x="0px" y="0px"
	 viewBox="0 0 292 292" style="enable-background:new 0 0 292 292;" xml:space="preserve">
<path d="M292,38.5c0-13.807-11.193-25-25-25H25c-13.807,0-25,11.193-25,25v215c0,13.807,11.193,25,25,25h242
	c13.807,0,25-11.193,25-25V38.5z M262,230.601l-23.507-21.334c0.11-1.89-0.228-3.888-1.323-5.878l-16.122-29.018
	c0.07-0.605-0.048-1.218-0.048-1.841V81.192c0-8.822-6.714-15.692-15.536-15.692H85.203c-1.977,0-3.856,0.215-5.595,0.849L54.3,43.5
	H262V230.601z M172.569,204.5h-54.471l7.511-23h37.279l3.069,2.753L172.569,204.5z M99,158.5v-34.01l38.247,34.01H99z M111.942,95.5
	H191v63h-8.826L111.942,95.5z M30,62.399l39,35.18v74.949c0,0.624,0.146,1.236,0.216,1.841l-15.91,29.018
	c-1.885,3.426-1.967,6.882-0.27,9.75c1.697,2.869,4.937,4.361,8.848,4.361H203.02l35.347,32H30V62.399z"/>
<g>
</g>
<g>
</g>
<g>
</g>
<g>
</g>
<g>
</g>
<g>
</g>
<g>
</g>
<g>
</g>
<g>
</g>
<g>
</g>
<g>
</g>
<g>
</g>
<g>
</g>
<g>
</g>
<g>
</g>
</svg>
