<svg id="6fc30b1d-d3db-4054-98c8-451f3bd5c7b9" data-name="Capa 1" xmlns="http://www.w3.org/2000/svg" viewBox="0 0 475.08 675.33"><title>shopagree-cart</title><path d="M365.45,402a36.56,36.56,0,1,0,10.71-25.84A35.21,35.21,0,0,0,365.45,402Z" transform="translate(0 236.79)"/><path d="M99.5,38.4a17.42,17.42,0,0,0-8.14-1.85H18.28A17.58,17.58,0,0,0,5.43,42a17.92,17.92,0,0,0,0,25.7,17.57,17.57,0,0,0,12.85,5.42H76.51l50.53,235q-.57,1.14-5.85,10.85t-8.42,17q-3.14,7.29-3.14,11.28a18.52,18.52,0,0,0,18.28,18.27H420.26a18.28,18.28,0,0,0,0-36.55H157.6q6.86-13.71,6.85-18.27a30.85,30.85,0,0,0-.71-6.28q-.72-3.42-1.71-7.57t-1.28-6.13l298.08-34.83a17.73,17.73,0,0,0,11.7-6.14,18,18,0,0,0,4.57-12.13V91.36a18.53,18.53,0,0,0-18.27-18.28H113.92q-.29-2-1.29-7.28t-1.57-8.42" transform="translate(0 236.79)"/><path d="M109.63,402a36.56,36.56,0,0,0,36.55,36.54,36.54,36.54,0,1,0-25.84-62.39A35.22,35.22,0,0,0,109.63,402Z" transform="translate(0 236.79)"/><path d="M239.26,95.9A2.29,2.29,0,1,1,237,93.61C238.4,93.9,239.26,94.76,239.26,95.9Z" transform="translate(0 236.79)"/><path d="M377.55-46.39a18.07,18.07,0,0,0,12.6-5.44A17.23,17.23,0,0,0,389-76.17,224.4,224.4,0,0,0,86.37-77.31C79.22-71,78.93-60.13,85.23-53s17.18,7.44,24.34,1.14A190.07,190.07,0,0,1,365.81-51,16.9,16.9,0,0,0,377.55-46.39Z" transform="translate(0 236.79)"/><path d="M313.41,30.63A18.07,18.07,0,0,0,326,25.19,17.23,17.23,0,0,0,324.87.85,129.35,129.35,0,0,0,150.22,0c-7.16,6.3-7.44,17.18-1.14,24.34s17.18,7.44,24.34,1.14A95,95,0,0,1,301.68,26,17.41,17.41,0,0,0,313.41,30.63Z" transform="translate(0 236.79)"/><path d="M458-116.25a18.07,18.07,0,0,0,12.6-5.44A17.23,17.23,0,0,0,469.45-146a342,342,0,0,0-232.77-90.76,344,344,0,0,0-231.05,89c-7.16,6.3-7.44,17.18-1.14,24.34s17.18,7.44,24.34,1.14a309.75,309.75,0,0,1,417.44,1.43A18.93,18.93,0,0,0,458-116.25Z" transform="translate(0 236.79)"/></svg>