<svg id="21f929dd-ba50-48a3-903b-93ae00be6cce" data-name="Capa 1" xmlns="http://www.w3.org/2000/svg" viewBox="0 0 476.8 696.94"><title>shopagree-cart-2</title><path d="M365.45,402a36.56,36.56,0,1,0,10.71-25.84A35.21,35.21,0,0,0,365.45,402Z" transform="translate(0 258.4)"/><path d="M99.5,38.4a17.42,17.42,0,0,0-8.14-1.85H18.28A17.58,17.58,0,0,0,5.43,42a17.92,17.92,0,0,0,0,25.7,17.57,17.57,0,0,0,12.85,5.42H76.51l50.53,235q-.57,1.14-5.85,10.85t-8.42,17q-3.14,7.29-3.14,11.28a18.52,18.52,0,0,0,18.28,18.27H420.26a18.28,18.28,0,0,0,0-36.55H157.6q6.86-13.71,6.85-18.27a30.85,30.85,0,0,0-.71-6.28q-.72-3.42-1.71-7.57t-1.28-6.13l298.08-34.83a17.73,17.73,0,0,0,11.7-6.14,18,18,0,0,0,4.57-12.13V91.36a18.53,18.53,0,0,0-18.27-18.28H113.92q-.29-2-1.29-7.28t-1.57-8.42" transform="translate(0 258.4)"/><path d="M109.63,402a36.56,36.56,0,0,0,36.55,36.54,36.54,36.54,0,1,0-25.84-62.39A35.22,35.22,0,0,0,109.63,402Z" transform="translate(0 258.4)"/><path d="M241,74.29A2.29,2.29,0,1,1,238.69,72C240.12,72.28,241,73.14,241,74.29Z" transform="translate(0 258.4)"/><path d="M379.26-68a18.07,18.07,0,0,0,12.6-5.44,17.23,17.23,0,0,0-1.14-24.34,224.21,224.21,0,0,0-152-59.27A223.35,223.35,0,0,0,88.09-98.93c-7.16,6.3-7.44,17.18-1.14,24.34s17.18,7.44,24.34,1.14A189.59,189.59,0,0,1,239-122.69a188.75,188.75,0,0,1,128.55,50.1A16.9,16.9,0,0,0,379.26-68Z" transform="translate(0 258.4)"/><path d="M315.13,9a18.07,18.07,0,0,0,12.6-5.44,17.23,17.23,0,0,0-1.14-24.34,129.35,129.35,0,0,0-174.65-.86c-7.16,6.3-7.44,17.18-1.14,24.34S168,10.16,175.13,3.86a95,95,0,0,1,128.27.57A17.41,17.41,0,0,0,315.13,9Z" transform="translate(0 258.4)"/><path d="M459.72-137.87a18.07,18.07,0,0,0,12.6-5.44,17.23,17.23,0,0,0-1.14-24.34A342,342,0,0,0,238.4-258.4a344,344,0,0,0-231.05,89C.19-163.06-.09-152.18,6.21-145s17.18,7.44,24.34,1.14A309.75,309.75,0,0,1,448-142.45,18.93,18.93,0,0,0,459.72-137.87Z" transform="translate(0 258.4)"/></svg>