<?xml version="1.0" encoding="iso-8859-1"?>
<!-- Generator: Adobe Illustrator 19.0.0, SVG Export Plug-In . SVG Version: 6.00 Build 0)  -->
<svg version="1.1" id="Layer_1" xmlns="http://www.w3.org/2000/svg" xmlns:xlink="http://www.w3.org/1999/xlink" x="0px" y="0px"
	 viewBox="0 0 512 512" style="enable-background:new 0 0 512 512;" xml:space="preserve">
<g>
	<g>
		<path d="M495.219,329.789l-0.75-0.219c-11.016-2.953-14.734-5.797-19.641-7.656c-8.516-3.25-13.953-6.047-17.406-8.328
			l12.672-10.719c11.844-10.016,20.016-24.094,23.594-40.75c3.172-14.641,2.609-31-1.562-46.031
			c-3.562-12.875-9.594-24.312-17.406-33.125c-8.875-9.953-19.828-16.234-31.703-18.156c-8.281-1.336-16.078-2.016-23.172-2.016
			c-20.531,0-31.828,5.609-37.469,9.93c-2.891,1.312-23.719,11.398-34.188,32.586c2.75-18.422,5.062-65.414-33.766-100.57
			c-9.047-8.188-30.578-17.477-57.227-17.477c-18.789,0-40.125,4.609-61.445,17.477c-26.109,15.758-45.109,85.336-45.109,85.336
			s5.734,3.234,15.844,6.391c-0.758,5.359-1.156,10.938-1.156,16.719c0,29.422,14,58.281,32.328,79.797l-0.109,14.422
			c-0.055,0.141-0.109,0.281-0.172,0.406c-1.531,3.016-6.812,8.859-24.766,16.906c-2.297-1.062-4.156-2.031-6.234-2.812
			c-17.391-6.625-21.922-11.406-23.078-13.656c-0.047-0.094-0.078-0.188-0.109-0.266l-0.109-15.203
			c9.289-12.438,15.93-27.938,15.953-44.031c0,0,6.516-25.359-0.781-42.172c-6.969-16.078-25.211-16.422-26.812-16.422
			c-0.062,0-0.109,0-0.109,0s-1.109-9.906,10.75-17.031c1.984-1.195-9.391-4.156-25.094-4.156c-24,0-58.117,6.906-70.289,37.547
			c-7.57,19.047-1.977,47.094-1.977,47.094l0.016-0.016c1.18,14.344,7.391,28,15.75,39.188l-0.109,15.203
			c-0.031,0.078-0.07,0.172-0.109,0.266c-1.156,2.25-5.688,7.031-23.078,13.656c-4.906,1.859-8.641,4.703-19.656,7.656l-0.75,0.219
			C6.75,333.086,0,342.398,0,352.898v29.188h96v42.656h117.336h85.336h117.312v-42.656h3.141H512v-29.188
			C512,342.398,505.25,333.117,495.219,329.789z M419.844,184.117c5.969,0,12.609,0.594,19.766,1.75
			c14.203,2.297,26.453,16.062,31.953,35.906c3.312,11.938,3.938,26.234,0.406,39.219c-2.438-11.297-7.141-23.5-15.984-33.578
			c-12.328-14.047-29.922-21.172-52.281-21.172c-1.531,0-3.094,0.031-4.672,0.094l-1.078-18.234
			C401.5,186.336,408.25,184.117,419.844,184.117z M383.281,245.805c3.625-9.5,7.797-15.031,10.188-17.656
			c3.562-0.375,7-0.594,10.234-0.594c16.141,0,27.969,4.531,36.188,13.875c6.25,7.094,9.609,16.094,11.375,24.625
			c-2.562,6.188-6.375,12.281-11.25,17.875c-9.656,11.094-18.703,14.625-20.891,14.672c-2.188-0.047-11.234-3.578-20.906-14.672
			c-9.531-10.938-15-23.844-15-35.406C383.219,247.586,383.25,246.695,383.281,245.805z M376.422,290.648
			c3.109,4.422,6.578,8.5,10.219,12.094l-0.031,5.25c-0.047,0.094-0.078,0.188-0.109,0.25c-0.797,1.562-3.188,4.312-10.281,8.031
			L376.422,290.648z M374.625,204.32l-0.75,14.078c-1.828,2.469-3.781,5.469-5.719,9.078c-1.656,3.078-3.141,6.297-4.469,9.703
			c-0.094-1.953-0.141-3.969-0.141-6.031C363.547,219.523,368.734,210.648,374.625,204.32z M349.234,276.118
			c3.547,10.437,7.188,16.218,7.594,16.843l16.141,24.938c-2.656,1.25-5.797,2.594-9.547,4.016
			c-4.219,1.609-7.562,3.922-15.422,6.422c-24.953-9.906-31.641-17.094-33.375-20.531c-0.062-0.125-0.125-0.266-0.188-0.406
			l-0.094-14.438c12.359-14.516,22.75-32.375,28.203-51.5C343.343,253.743,345.577,265.368,349.234,276.118z M183.281,161.078
			c12.625-30.367,21.781-37.047,23.492-38.078c15.844-9.562,32.805-14.406,50.422-14.406c22.43,0,38.586,8.055,42.898,11.953
			c14.641,13.25,23.641,30.039,26.828,49.969c-1.359-1.75-2.859-3.453-4.594-5.07c-6.547-6.078-14.547-9.164-23.781-9.164
			c-9.906,0-21.422,3.523-39.766,12.156c-17.578,8.273-35.578,12.461-53.484,12.461c-11.219,0-20.828-1.672-28.203-3.609
			C178.828,172.344,180.906,166.781,183.281,161.078z M186.656,213.179c0-4.156,0.25-8.202,0.735-12.14
			c5.484,0.734,11.469,1.203,17.906,1.203c17.938,0,39.312-3.562,62.562-14.5c15.188-7.156,24.422-10.125,30.688-10.125
			c10.094,0,12.438,7.734,19.422,18.234c1.594,2.359,4.016,4.578,6.797,6.578c0.375,3.5,0.562,7.094,0.562,10.75
			c0,21.625-9.953,45.688-27.297,66.031c-17.625,20.688-34.797,28.188-42.031,28.188c-7.242,0-24.406-7.5-42.047-28.188
			C196.609,258.866,186.656,234.804,186.656,213.179z M85.766,195.867c6.734-2.875,15.156-4.703,24.219-5.328
			c0.031,0.828,0.094,1.484,0.141,1.984l1.25,12.562c-3.125,0.219-6.359,0.344-9.594,0.344c-10.547,0-20.797-1.359-27.391-2.469
			C77.469,200.148,81.25,197.805,85.766,195.867z M72.297,224.242c7.469,1.203,18.234,2.531,29.484,2.531
			c11.07,0,21.883-1.281,29.516-2.469c4.203,6.672,6.406,14.969,6.406,24.359c0,11.578-5.477,24.484-15.016,35.438
			c-9.672,11.078-18.711,14.641-20.906,14.672c-2.203-0.031-11.242-3.594-20.906-14.672c-9.547-10.953-15.016-23.859-15.016-35.438
			C65.859,239.242,68.078,230.93,72.297,224.242z M100.329,360.742h-79v-7.844h-0.001c0-1.219,0.773-2.312,1.938-2.781
			c9.344-2.531,14.688-5.094,18.594-6.969c1.227-0.578,2.188-1.031,2.922-1.312c19.359-7.375,29.672-14.531,34.469-23.875
			l0.016-0.031l0.016-0.031c0.289-0.562,0.5-1.031,0.656-1.391l1.609-3.641c7.094,4.594,14.188,7.234,20.234,7.234
			c6.031,0,13.125-2.641,20.219-7.234l1.641,3.688c0.172,0.375,0.398,0.875,0.711,1.484c3.414,6.609,9.602,12.109,19.828,17.391
			c-5.945,1.938-12.852,4.031-20.711,6.156l-1.18,0.344C112.579,345.18,104.829,352.039,100.329,360.742z M217.336,403.398h-100
			v-24.875c0-7.344,4.57-13.828,11.406-16.25l0.516-0.156c18.086-4.906,31.508-9.656,39.617-12.766
			c24.234-9.328,38.516-18.234,45.469-28.422l12.312,32.719L217.336,403.398z M239.039,403.398l7.992-42.656h17.922l8.016,42.656
			H239.039z M267.899,339.398h-23.805l-5.273-14h1.242c5.594,2.172,10.984,3.344,15.938,3.344c4.938,0,10.328-1.172,15.938-3.344
			h1.233L267.899,339.398z M394.657,403.398L394.657,403.398h-99.985l-9.344-49.75l12.328-32.719
			c6.938,10.188,21.219,19.078,45.438,28.391c8.062,3.109,21.469,7.859,39.719,12.812l0.375,0.109
			c6.875,2.406,11.469,8.922,11.469,16.281V403.398z M419.125,360.742h-7.469c-4.484-8.703-12.219-15.562-21.938-18.812
			l-1.031-0.312c-3.562-0.969-6.922-1.922-10.094-2.844c14.547-6.344,22.75-12.75,26.875-20.781l0.031-0.062l0.047-0.078
			c0.234-0.453,0.406-0.859,0.547-1.172c4.594,2.094,9.047,3.25,13.031,3.25s8.422-1.156,13.031-3.25
			c0.141,0.344,0.344,0.781,0.609,1.312c4.797,9.344,15.109,16.469,34.484,23.859c0.703,0.266,1.672,0.734,2.891,1.312
			c3.906,1.875,9.25,4.438,18.594,6.953c1.172,0.469,1.938,1.547,1.938,2.781v7.844H419.125z"/>
	</g>
</g>
<g>
</g>
<g>
</g>
<g>
</g>
<g>
</g>
<g>
</g>
<g>
</g>
<g>
</g>
<g>
</g>
<g>
</g>
<g>
</g>
<g>
</g>
<g>
</g>
<g>
</g>
<g>
</g>
<g>
</g>
</svg>
