<?xml version="1.0" encoding="iso-8859-1"?>
<!-- Generator: Adobe Illustrator 16.0.0, SVG Export Plug-In . SVG Version: 6.00 Build 0)  -->
<!DOCTYPE svg PUBLIC "-//W3C//DTD SVG 1.1//EN" "http://www.w3.org/Graphics/SVG/1.1/DTD/svg11.dtd">
<svg xmlns="http://www.w3.org/2000/svg" xmlns:xlink="http://www.w3.org/1999/xlink" version="1.1" id="Capa_1" x="0px" y="0px" width="512px" height="512px" viewBox="0 0 193.472 193.472" style="enable-background:new 0 0 193.472 193.472;" xml:space="preserve">
<g>
	<path d="M157.868,54.66C154.434,23.962,128.35,0,96.736,0C65.128,0,39.041,23.962,35.61,54.66H4.82v138.812h183.831V54.66H157.868z    M96.736,18.158c21.572,0,39.469,15.853,42.78,36.502H53.957C57.267,34.011,75.165,18.158,96.736,18.158z M22.979,175.308V72.812   h137L135.814,90.27c-6.956-6.877-16.372-10.885-26.355-10.885c-7.59,0-14.934,2.275-21.202,6.582L67.75,100.022   c-8.272,5.662-13.849,14.221-15.687,24.08c-1.847,9.859,0.266,19.837,5.938,28.123c7.007,10.215,18.598,16.314,31.002,16.314   c7.583,0,14.912-2.275,21.189-6.579l20.511-14.05c15.682-10.746,20.604-31.356,12.271-47.877l27.521-19.887v95.166H22.979V175.308z    M123.852,137.934l-0.484,0.331l-11.018-16.101l20.628-14.907C137.464,118.109,133.93,131.03,123.852,137.934z M94.617,96.284   l0.479-0.331c4.256-2.905,9.215-4.457,14.363-4.457c6.076,0,11.845,2.181,16.373,5.996l-20.315,14.683L94.617,96.284z    M84.631,103.132l28.759,41.978l-10.049,6.88c-4.249,2.92-9.214,4.469-14.351,4.469c-8.414,0-16.269-4.149-21.016-11.064   c-3.845-5.615-5.272-12.377-4.025-19.051c1.248-6.686,5.024-12.478,10.634-16.308L84.631,103.132z" fill="#000000"/>
</g>
<g>
</g>
<g>
</g>
<g>
</g>
<g>
</g>
<g>
</g>
<g>
</g>
<g>
</g>
<g>
</g>
<g>
</g>
<g>
</g>
<g>
</g>
<g>
</g>
<g>
</g>
<g>
</g>
<g>
</g>
</svg>
