<?xml version="1.0" encoding="iso-8859-1"?>
<!-- Generator: Adobe Illustrator 19.0.0, SVG Export Plug-In . SVG Version: 6.00 Build 0)  -->
<svg xmlns="http://www.w3.org/2000/svg" xmlns:xlink="http://www.w3.org/1999/xlink" version="1.1" id="Layer_1" x="0px" y="0px" viewBox="0 0 512 512" style="enable-background:new 0 0 512 512;" xml:space="preserve" width="512px" height="512px">
<g>
	<g>
		<path d="M445.241,103.396c6.515-10.195,10.31-22.288,10.31-35.259c0-36.214-29.462-65.676-65.675-65.676    c-20.265,0-38.411,9.23-50.467,23.702c-12.056-14.471-30.202-23.702-50.467-23.702c-36.214,0-65.675,29.462-65.675,65.676    c0,12.97,3.795,25.064,10.31,35.259h-66.76v84.809h18v25.378H148.72c-68.57,0-115.854,8.77-136.046,12.515L0,228.449v262.95    l12.376,2.346c38.001,7.205,97.954,15.794,167.763,15.794h151.873c22.822,0,41.388-18.567,41.388-41.388v-0.749    c0-3.927-0.55-7.728-1.577-11.33c20.246-2.685,35.92-20.061,35.92-41.028v-0.749c0-3.797-0.518-7.476-1.479-10.971h87.737V188.206    H512v-84.809H445.241z M327.422,133.813h23.975v23.975h-23.975V133.813z M327.42,188.208h23.975v83.309    c-0.143-0.076-0.291-0.141-0.434-0.214c-0.484-0.25-0.971-0.494-1.466-0.725c-0.24-0.113-0.482-0.22-0.724-0.327    c-0.465-0.207-0.936-0.406-1.41-0.595c-0.245-0.098-0.49-0.198-0.738-0.291c-0.532-0.202-1.071-0.389-1.613-0.569    c-0.187-0.062-0.37-0.13-0.558-0.189c-0.729-0.23-1.466-0.441-2.211-0.632c-0.162-0.042-0.328-0.074-0.491-0.114    c-0.588-0.142-1.18-0.275-1.777-0.391c-0.262-0.052-0.526-0.095-0.79-0.141c-0.514-0.09-1.031-0.172-1.551-0.243    c-0.28-0.039-0.561-0.075-0.843-0.107c-0.54-0.063-1.085-0.112-1.631-0.153c-0.25-0.019-0.499-0.043-0.75-0.057    c-0.794-0.046-1.592-0.075-2.397-0.075h-4.59V188.208z M288.941,32.879c19.441,0,35.258,15.817,35.258,35.259v35.259h-27.195    h-8.063c-19.441,0-35.258-15.818-35.258-35.259C253.684,48.696,269.501,32.879,288.941,32.879z M197.235,133.813h91.706h8.063    v23.975h-99.769V133.813z M228.982,213.584h-13.747v-25.378h81.769v78.486h-28.11c0.961-3.496,1.475-7.173,1.475-10.971v-0.749    C270.37,232.15,251.803,213.584,228.982,213.584z M377.327,361.936c0,5.508-4.085,10.068-9.383,10.842    c-0.156,0.022-0.309,0.056-0.467,0.071c-0.108,0.011-0.222,0.009-0.332,0.017c-0.238,0.017-0.476,0.034-0.718,0.036    c-0.056,0.001-0.115,0.002-0.171,0.004h-146.56v30.417h146.66c6.05,0,10.97,4.922,10.97,10.97v0.749    c0,6.049-4.922,10.97-10.97,10.97h-34.343H207.319v30.417h124.693c6.05,0,10.971,4.922,10.971,10.971v0.749    c0,6.049-4.922,10.97-10.971,10.97H180.139c-60.301,0-112.991-6.633-149.722-13.013V253.805    c23.292-4.024,63.784-9.805,118.304-9.805h36.098h44.164c6.05,0,10.971,4.922,10.971,10.97v0.749    c0,6.049-4.922,10.969-10.969,10.97h-0.001h-87.259v30.417h87.259h68.023h35.007c0.756,0,1.495,0.077,2.208,0.223    c4.995,1.025,8.762,5.455,8.762,10.747v0.749c0,6.049-4.922,10.97-10.97,10.97H207.319v30.417h124.693h34.14    c0.09,0.002,0.181,0.004,0.272,0.005l0.052,0.001c5.994,0.065,10.851,4.956,10.851,10.964V361.936z M354.617,103.396V68.138    c0-19.442,15.818-35.259,35.259-35.259c19.442,0,35.258,15.817,35.258,35.259c0,19.442-15.817,35.259-35.258,35.259h-8.063    H354.617z M463.585,372.906h-0.001h-57.315c0.007-0.027,0.012-0.056,0.02-0.083c0.209-0.766,0.391-1.541,0.557-2.324    c0.04-0.188,0.076-0.375,0.114-0.564c0.146-0.742,0.276-1.489,0.381-2.245c0.009-0.067,0.022-0.132,0.031-0.199    c0.108-0.807,0.188-1.623,0.248-2.445c0.015-0.199,0.027-0.397,0.04-0.597c0.051-0.832,0.085-1.669,0.085-2.513v-0.749    c0-17.357-10.746-32.243-25.93-38.381v-134.6h81.77V372.906z M481.583,157.788h-99.768v-23.975h8.063h91.706V157.788z" fill="#000000"/>
	</g>
</g>
<g>
</g>
<g>
</g>
<g>
</g>
<g>
</g>
<g>
</g>
<g>
</g>
<g>
</g>
<g>
</g>
<g>
</g>
<g>
</g>
<g>
</g>
<g>
</g>
<g>
</g>
<g>
</g>
<g>
</g>
</svg>
