<?xml version="1.0" encoding="iso-8859-1"?>
<!-- Generator: Adobe Illustrator 19.0.0, SVG Export Plug-In . SVG Version: 6.00 Build 0)  -->
<svg xmlns="http://www.w3.org/2000/svg" xmlns:xlink="http://www.w3.org/1999/xlink" version="1.1" id="Layer_1" x="0px" y="0px" viewBox="0 0 512.001 512.001" style="enable-background:new 0 0 512.001 512.001;" xml:space="preserve" width="512px" height="512px">
<g>
	<g>
		<path d="M354.533,237.09v42.499h43.482c3.255,0,5.727-3.338,5.727-6.594V237.09H354.533z" fill="#000000"/>
	</g>
</g>
<g>
	<g>
		<path d="M272.003,256.275l-6.942-1.869v18.59c0,3.255,2.569,6.594,5.823,6.594h43.386v-40.374    C305.795,253.347,288.704,260.769,272.003,256.275z" fill="#000000"/>
	</g>
</g>
<g>
	<g>
		<path d="M416.861,131.96h-34.109c1.731-1.304,3.234-2.586,4.441-3.792c12.003-12.005,12.002-31.549,0-43.553    c-12.032-12.033-31.508-12.033-43.54,0.002c-3.002,3.002-6.203,7.479-9.059,12.519c-3.022-5.294-6.314-9.752-9.084-12.522    c-12.032-12.031-31.508-12.036-43.542,0c-12.033,12.032-12.035,31.506,0,43.543c1.211,1.21,2.72,2.497,4.459,3.805h-34.487    c-3.255,0-5.894,2.638-5.894,5.894v25.12c0,3.255,2.638,5.894,5.894,5.894h13.12v7.18l26.61,7.163    c9.811,2.641,17.669,8.911,22.537,16.972h0.063V168.87v-1.118h40.262v1.118v31.315h49.21V168.87h13.119    c3.255,0,5.894-2.638,5.894-5.894v-25.123C422.755,134.599,420.117,131.96,416.861,131.96z M324.795,127.38    c-0.277,0.044-0.677,0.082-1.225,0.082c-8.354,0-23.237-7.831-28.156-12.75c-4.601-4.601-4.604-12.051,0-16.654    c4.601-4.602,12.051-4.602,16.653,0C319.115,105.106,325.91,122.246,324.795,127.38z M373.75,114.724    c-4.92,4.919-19.8,12.763-28.154,12.763c-0.001,0-0.001,0-0.002,0c-0.546,0-0.947-0.05-1.225-0.094    c-1.115-5.136,5.679-22.281,12.727-29.328c4.602-4.603,12.041-4.613,16.652-0.001C378.34,102.656,378.339,110.133,373.75,114.724z    " fill="#000000"/>
	</g>
</g>
<g>
	<g>
		<circle cx="192.141" cy="41.918" r="41.918" fill="#000000"/>
	</g>
</g>
<g>
	<g>
		<path d="M287.129,200.073l-68.058-18.32l-21.908-41.881l24.351,24.456l9.845,2.651l2.592-31.542    c1.388-16.886-11.175-31.699-28.061-33.087l-54.522-4.481c-16.886-1.388-31.699,11.175-33.087,28.061L105.391,282.79l16.056,84.04    L90.122,481.085c-3.57,13.02,4.091,26.469,17.112,30.039c13.02,3.569,26.469-4.094,30.038-17.111l32.702-119.277    c0.909-3.31,1.108-6.776,0.587-10.17l-11.871-77.394l9.511,0.782l29.161,79.505l-24.359,115.027    c-2.797,13.208,5.642,26.183,18.85,28.98c13.207,2.797,26.183-5.642,28.979-18.851l25.816-121.907    c0.953-4.496,0.618-9.167-0.964-13.482l-24.475-66.732l3.852-46.857c-38.826-10.451-28.26-7.607-37.971-10.221    c-8.209-2.21-14.006-8.94-15.452-16.778l-10.573-57.881l26.044,49.787c2.637,5.041,7.262,8.749,12.755,10.229l76.676,20.641    c10.882,2.928,22.046-3.529,24.965-14.376C304.43,214.175,297.993,202.997,287.129,200.073z" fill="#000000"/>
	</g>
</g>
<g>
</g>
<g>
</g>
<g>
</g>
<g>
</g>
<g>
</g>
<g>
</g>
<g>
</g>
<g>
</g>
<g>
</g>
<g>
</g>
<g>
</g>
<g>
</g>
<g>
</g>
<g>
</g>
<g>
</g>
</svg>
