<?xml version="1.0" encoding="iso-8859-1"?>
<!-- Generator: Adobe Illustrator 19.0.0, SVG Export Plug-In . SVG Version: 6.00 Build 0)  -->
<svg xmlns="http://www.w3.org/2000/svg" xmlns:xlink="http://www.w3.org/1999/xlink" version="1.1" id="Layer_1" x="0px" y="0px" viewBox="0 0 512.002 512.002" style="enable-background:new 0 0 512.002 512.002;" xml:space="preserve" width="512px" height="512px">
<g>
	<g>
		<path d="M341.439,0c-76.987,0-139.621,51.408-139.621,114.595c0,23.559,8.552,46.042,24.769,65.238    c-1.196,5.712-4.972,18.637-15.988,30.378c-3.146,3.351-4.022,8.268-2.233,12.526c1.797,4.275,5.943,7.103,10.562,7.201    c0.713,0.016,1.459,0.025,2.237,0.025c12.78,0,34.072-2.308,51.876-15.398c20.768,9.608,44.092,14.626,68.398,14.626    c76.987,0,139.621-51.408,139.621-114.595S418.427,0,341.439,0z M341.439,214.172c-23.502,0-45.937-5.128-65.585-14.916    c-0.265-0.154-0.538-0.291-0.817-0.41c-3.31-1.677-6.54-3.488-9.681-5.43c-3.527-2.182-8.155-1.088-10.336,2.44    c-2.181,3.527-1.088,8.155,2.44,10.336c0.139,0.085,0.278,0.171,0.417,0.256c-10.776,5.886-22.509,7.849-31.468,8.35    c13.824-17.829,15.571-35.768,15.645-36.6c0.202-2.287-0.653-4.473-2.218-6.008c-15.049-16.906-23-36.811-23-57.593    c0-54.908,55.896-99.578,124.603-99.578s124.603,44.669,124.603,99.577S410.146,214.172,341.439,214.172z" fill="#000000"/>
	</g>
</g>
<g>
	<g>
		<path d="M397.293,71.037h-69.106c-4.147,0-7.509,3.361-7.509,7.509c0,4.148,3.362,7.509,7.509,7.509h69.106    c4.148,0,7.509-3.361,7.509-7.509C404.802,74.399,401.441,71.037,397.293,71.037z" fill="#000000"/>
	</g>
</g>
<g>
	<g>
		<path d="M305.872,71.037h-20.671c-4.148,0-7.509,3.361-7.509,7.509c0,4.148,3.362,7.509,7.509,7.509h20.671    c4.148,0,7.509-3.361,7.509-7.509C313.382,74.398,310.02,71.037,305.872,71.037z" fill="#000000"/>
	</g>
</g>
<g>
	<g>
		<path d="M397.293,109.013H285.202c-4.148,0-7.509,3.361-7.509,7.509s3.361,7.509,7.509,7.509h112.091    c4.148,0,7.509-3.361,7.509-7.509S401.441,109.013,397.293,109.013z" fill="#000000"/>
	</g>
</g>
<g>
	<g>
		<path d="M352.142,146.989h-66.939c-4.148,0-7.509,3.361-7.509,7.509c0,4.148,3.361,7.509,7.509,7.509h66.939    c4.148,0,7.509-3.361,7.509-7.509C359.651,150.35,356.289,146.989,352.142,146.989z" fill="#000000"/>
	</g>
</g>
<g>
	<g>
		<path d="M359.963,381.513c13.196-9.554,21.804-25.072,21.804-42.572v-38.748c0-28.97-23.568-52.538-52.538-52.538    s-52.539,23.568-52.539,52.538v38.748c0,17.535,8.644,33.08,21.885,42.629c-18.146,5.979-34.702,16.883-47.3,31.415    c-15.238-24.753-39.874-44.001-68.765-52.755c16.434-10.826,27.31-29.435,27.31-50.545v-45.597    c0-33.357-27.139-60.496-60.496-60.496c-33.357,0-60.496,27.138-60.496,60.496v45.597c0,21.11,10.875,39.717,27.31,50.545    c-48.616,14.733-85.197,59.178-85.197,109.554v34.706c0,4.148,3.361,7.509,7.509,7.509H83.82c4.148,0,7.509-3.361,7.509-7.509    s-3.361-7.509-7.509-7.509H45.962v-27.197c0-25.919,11.067-50.708,31.161-69.799c11.848-11.257,26.154-19.684,41.427-24.678    l10.114,19.648l-14.141,61.383c-0.607,2.637,0.251,5.398,2.248,7.225l27.484,25.155c1.435,1.314,3.252,1.97,5.07,1.97    c1.818,0,3.635-0.657,5.069-1.97l27.484-25.155c1.996-1.827,2.856-4.588,2.248-7.225l-14.141-61.383l10.114-19.648    c15.273,4.993,29.58,13.421,41.427,24.678c9.215,8.755,16.525,18.71,21.746,29.422c0.063,0.157,0.115,0.316,0.189,0.471    c3.417,7.1,5.892,14.421,7.413,21.898c0.022,0.11,0.045,0.22,0.067,0.33c0.131,0.657,0.252,1.317,0.368,1.975    c0.038,0.217,0.077,0.435,0.114,0.652c0.095,0.561,0.181,1.122,0.265,1.684c0.043,0.292,0.089,0.584,0.129,0.877    c0.069,0.497,0.13,0.994,0.191,1.493c0.042,0.342,0.086,0.686,0.124,1.029c0.051,0.465,0.095,0.93,0.139,1.397    c0.035,0.366,0.072,0.732,0.103,1.099c0.039,0.468,0.068,0.936,0.099,1.404c0.024,0.361,0.052,0.722,0.072,1.083    c0.029,0.522,0.047,1.044,0.066,1.566c0.011,0.307,0.028,0.615,0.037,0.922c0.023,0.831,0.035,1.664,0.035,2.498v27.197H108.854    c-4.148,0-7.509,3.361-7.509,7.509c0,4.148,3.361,7.509,7.509,7.509h151.344h36.029c4.148,0,7.509-3.361,7.509-7.509    c0-4.148-3.361-7.509-7.509-7.509h-28.519v-27.197c0-0.947-0.014-1.892-0.039-2.837c-0.002-0.095-0.008-0.189-0.011-0.284    c-0.394-13.475-3.341-26.63-8.791-39.209c11.009-14.614,26.482-25.569,43.644-31.379l7.968,15.481l-11.924,51.761    c-0.607,2.637,0.251,5.399,2.248,7.225l23.357,21.377c1.435,1.314,3.252,1.97,5.07,1.97c1.817,0,3.635-0.657,5.069-1.97    l23.356-21.377c1.996-1.827,2.856-4.588,2.248-7.225l-11.924-51.762l7.955-15.455c12.479,4.225,24.164,11.17,33.877,20.398    c16.85,16.009,26.13,36.784,26.13,58.498v21.985h-94.683c-4.147,0-7.509,3.361-7.509,7.509c0,4.148,3.362,7.509,7.509,7.509    H423.45c4.148,0,7.509-3.361,7.509-7.509v-29.495C430.96,432.455,400.632,394.836,359.963,381.513z M103.847,264.09h0.001    c0-25.076,20.401-45.477,45.477-45.477c25.076,0,45.477,20.401,45.477,45.477v14.456c-19.801-4.373-27.894-24.653-28.257-25.591    c-1.042-2.749-3.592-4.638-6.525-4.832c-2.934-0.197-5.711,1.34-7.107,3.927c-0.138,0.256-13.383,24.023-49.067,27.018V264.09z     M149.325,473.002l-19.183-17.558l12.432-53.97h13.501l12.432,53.97L149.325,473.002z M133.525,371.583    c0.341-0.059,0.682-0.123,1.023-0.178c0.142-0.023,0.284-0.042,0.427-0.065c1.193-0.189,2.39-0.353,3.588-0.501    c0.657-0.079,1.314-0.155,1.971-0.221c0.413-0.043,0.824-0.088,1.237-0.125c1.064-0.095,2.13-0.173,3.194-0.234    c0.299-0.017,0.598-0.032,0.897-0.046c0.653-0.032,1.305-0.048,1.956-0.067c0.503,0.012,1.002,0.038,1.508,0.038    s1.005-0.026,1.508-0.038c0.652,0.019,1.304,0.035,1.956,0.067c0.299,0.015,0.598,0.029,0.897,0.046    c1.064,0.062,2.13,0.139,3.194,0.234c0.412,0.037,0.825,0.082,1.237,0.125c0.657,0.066,1.315,0.142,1.971,0.221    c1.198,0.147,2.395,0.311,3.588,0.501c0.142,0.022,0.284,0.042,0.427,0.065c0.341,0.056,0.683,0.12,1.023,0.178l-7.656,14.872    H141.18L133.525,371.583z M151.12,355.117c-0.564-0.016-1.126-0.037-1.692-0.044c-0.068-0.002-0.137-0.002-0.205,0    c-0.566,0.008-1.128,0.029-1.692,0.044c-24.247-0.947-43.683-20.957-43.683-45.431v-15.559    c28.483-2.003,45.697-15.144,54.601-24.739c6.251,9.383,17.795,21.685,36.354,24.434v15.864    C194.803,334.16,175.366,354.171,151.12,355.117z M291.71,300.193c0-20.688,16.832-37.52,37.521-37.52    c20.688,0,37.52,16.832,37.52,37.52v10.84c-15.227-4.199-21.543-19.961-21.831-20.703c-1.042-2.748-3.592-4.637-6.525-4.831    c-2.924-0.183-5.711,1.34-7.107,3.927c-0.112,0.209-10.778,19.342-39.577,22.26V300.193z M329.23,476.202l-15.056-13.78    l10.216-44.349h9.679l10.216,44.349L329.23,476.202z M317.512,392.404c0.343-0.053,0.687-0.106,1.031-0.155    c0.335-0.047,0.67-0.093,1.005-0.136c0.528-0.068,1.055-0.132,1.584-0.191c0.426-0.047,0.85-0.088,1.276-0.129    c0.462-0.044,0.923-0.089,1.386-0.126c0.534-0.042,1.068-0.075,1.602-0.107c0.367-0.022,0.734-0.049,1.102-0.066    c0.469-0.022,0.937-0.031,1.406-0.045c0.443,0.011,0.882,0.034,1.327,0.034c0.392,0,0.781-0.021,1.171-0.03    c0.863,0.025,1.726,0.051,2.588,0.103c0.276,0.016,0.554,0.036,0.83,0.055c1.202,0.084,2.403,0.185,3.602,0.32    c0.032,0.004,0.064,0.006,0.095,0.01c1.144,0.13,2.286,0.296,3.425,0.473l-5.478,10.642h-12.469L317.512,392.404z     M330.759,376.424c-0.476-0.013-0.95-0.031-1.427-0.037c-0.068-0.002-0.137-0.002-0.205,0c-0.45,0.006-0.9,0.027-1.351,0.039    c-20.017-0.768-36.067-17.282-36.067-37.484v-12.169c22.951-1.89,37.282-12.226,45.129-20.299    c5.483,7.819,15.045,17.412,29.91,19.951v12.518C366.749,359.118,350.74,375.618,330.759,376.424z" fill="#000000"/>
	</g>
</g>
<g>
</g>
<g>
</g>
<g>
</g>
<g>
</g>
<g>
</g>
<g>
</g>
<g>
</g>
<g>
</g>
<g>
</g>
<g>
</g>
<g>
</g>
<g>
</g>
<g>
</g>
<g>
</g>
<g>
</g>
</svg>
