<?xml version="1.0" encoding="iso-8859-1"?>
<!-- Generator: Adobe Illustrator 16.0.0, SVG Export Plug-In . SVG Version: 6.00 Build 0)  -->
<!DOCTYPE svg PUBLIC "-//W3C//DTD SVG 1.1//EN" "http://www.w3.org/Graphics/SVG/1.1/DTD/svg11.dtd">
<svg xmlns="http://www.w3.org/2000/svg" xmlns:xlink="http://www.w3.org/1999/xlink" version="1.1" id="Capa_1" x="0px" y="0px" width="512px" height="512px" viewBox="0 0 752.912 752.912" style="enable-background:new 0 0 752.912 752.912;" xml:space="preserve">
<g>
	<g>
		<path d="M70.456,210.476v542.436h612V210.476H70.456z M644.967,419.139H447.998V247.966h196.969V419.139z M304.884,498.639    H107.945v-42.012h196.968v42.012H304.884z M342.374,247.966h68.135v467.487h-68.135V247.966z M447.998,456.627h196.969v42.012    H447.998V456.627z M304.884,247.966v171.173H107.945V247.966H304.884z M107.945,536.129h196.968v179.324H107.945V536.129z     M447.998,715.453V536.129h196.969v179.324H447.998z" fill="#000000"/>
		<path d="M566.596,173.879c1.875-0.565,45.88-14.192,45.88-76.466C612.506,41.893,571.237,0,516.461,0    C465.88,0,394.68,50.581,394.68,163.02v18.745h117.14C527.529,181.734,551.57,178.313,566.596,173.879z M516.461,37.489    c28.207,0,58.556,18.745,58.556,59.954c0,32.758-17.437,39.929-18.953,40.494c-11.545,3.392-32.193,6.338-44.214,6.338h-78.817    C439.727,71.527,485.071,37.489,516.461,37.489z" fill="#000000"/>
		<path d="M186.346,173.879c15.025,4.404,39.066,7.855,54.776,7.855h117.14V162.99C358.232,50.581,287.002,0,236.451,0    c-54.746,0-96.044,41.893-96.044,97.413C140.407,159.717,184.472,173.344,186.346,173.879z M236.451,37.489    c31.42,0,76.734,34.068,83.459,106.786h-78.817c-12.02,0-32.699-2.976-44.213-6.338c-0.179-0.089-18.983-6.545-18.983-40.524    C177.896,56.234,208.245,37.489,236.451,37.489z" fill="#000000"/>
	</g>
</g>
<g>
</g>
<g>
</g>
<g>
</g>
<g>
</g>
<g>
</g>
<g>
</g>
<g>
</g>
<g>
</g>
<g>
</g>
<g>
</g>
<g>
</g>
<g>
</g>
<g>
</g>
<g>
</g>
<g>
</g>
</svg>
