<?xml version="1.0" encoding="iso-8859-1"?>
<!-- Generator: Adobe Illustrator 19.0.0, SVG Export Plug-In . SVG Version: 6.00 Build 0)  -->
<svg xmlns="http://www.w3.org/2000/svg" xmlns:xlink="http://www.w3.org/1999/xlink" version="1.1" id="Layer_1" x="0px" y="0px" viewBox="0 0 502.4 502.4" style="enable-background:new 0 0 502.4 502.4;" xml:space="preserve" width="512px" height="512px">
<g>
	<g>
		<path d="M481.066,81.749h-140.8l37.333-46.933c7.467-9.6,5.333-22.4-3.2-29.867c-9.6-7.467-22.4-5.333-29.867,3.2l-38.4,48    l-35.2-43.733c-1.067-3.2-3.2-5.333-5.333-7.467c-9.6-7.467-22.4-5.333-29.867,3.2l-38.4,48l-38.4-48    c-7.467-8.533-21.333-10.667-29.867-3.2s-10.667,21.333-3.2,29.867L163.2,81.749H21.333C9.6,81.749,0,91.349,0,103.082v131.2    c0,11.733,9.6,21.333,21.333,21.333h8.533v225.067c0,11.733,9.6,21.333,21.333,21.333h398.933c11.733,0,21.333-9.6,21.333-21.333    V255.615h9.6c11.733,0,21.333-9.6,21.333-21.333v-131.2C502.399,91.349,492.799,81.749,481.066,81.749z M251.733,56.149    l20.267,25.6h-40.533L251.733,56.149z M230.399,460.416H72.533v-204.8h157.867V460.416z M428.799,460.416h-156.8v-204.8h156.8    V460.416z M459.733,212.949H41.599v-89.6h418.133V212.949z" fill="#000000"/>
	</g>
</g>
<g>
</g>
<g>
</g>
<g>
</g>
<g>
</g>
<g>
</g>
<g>
</g>
<g>
</g>
<g>
</g>
<g>
</g>
<g>
</g>
<g>
</g>
<g>
</g>
<g>
</g>
<g>
</g>
<g>
</g>
</svg>
