<?xml version="1.0" encoding="iso-8859-1"?>
<!-- Generator: Adobe Illustrator 19.0.0, SVG Export Plug-In . SVG Version: 6.00 Build 0)  -->
<svg xmlns="http://www.w3.org/2000/svg" xmlns:xlink="http://www.w3.org/1999/xlink" version="1.1" id="Layer_1" x="0px" y="0px" viewBox="0 0 254.524 254.524" style="enable-background:new 0 0 254.524 254.524;" xml:space="preserve" width="512px" height="512px">
<g>
	<g>
		<g>
			<path d="M253.195,122.968L236.177,98.08l2.293-30.061c0.238-3.127-1.466-6.079-4.294-7.439l-27.183-13.049l-13.051-27.182     c-1.357-2.828-4.337-4.537-7.436-4.294l-30.064,2.29L131.556,1.33c-2.589-1.77-5.998-1.77-8.588,0L98.08,18.345l-30.064-2.29     c-3.122-0.243-6.079,1.466-7.439,4.294L47.528,47.532L20.346,60.58c-2.828,1.357-4.532,4.312-4.294,7.439l2.29,30.064     L1.328,122.971c-1.77,2.589-1.77,5.998,0,8.59l17.015,24.888l-2.285,30.059c-0.238,3.125,1.466,6.079,4.294,7.436l27.183,13.049     l13.049,27.183c1.357,2.828,4.317,4.525,7.439,4.294l30.064-2.29l24.888,17.015c1.293,0.885,2.795,1.326,4.294,1.326     c1.499,0,3-0.444,4.294-1.326l24.888-17.015l30.064,2.29c3.099,0.231,6.077-1.466,7.436-4.291l13.051-27.185l27.183-13.049     c2.828-1.357,4.532-4.309,4.294-7.439l-2.293-30.061l17.018-24.888C254.965,128.966,254.965,125.557,253.195,122.968z      M222.106,150.062c-0.976,1.428-1.435,3.147-1.306,4.875l2.1,27.538l-24.9,11.956c-1.56,0.748-2.818,2.006-3.566,3.563     l-11.956,24.903l-27.54-2.097c-1.725-0.132-3.442,0.33-4.872,1.306l-22.803,15.587l-22.803-15.587     c-1.268-0.867-2.764-1.326-4.294-1.326c-0.193,0-0.386,0.008-0.578,0.023l-27.54,2.097L60.096,198     c-0.748-1.56-2.009-2.818-3.566-3.566l-24.903-11.956l2.1-27.54c0.132-1.725-0.327-3.442-1.306-4.872l-15.587-22.803     l15.587-22.803c0.976-1.428,1.435-3.147,1.306-4.872l-2.1-27.54L56.53,60.094c1.56-0.748,2.818-2.009,3.566-3.566l11.953-24.903     l27.54,2.1c1.732,0.132,3.444-0.327,4.872-1.306l22.803-15.587l22.803,15.587c1.428,0.976,3.15,1.441,4.872,1.306l27.54-2.1     l11.956,24.903c0.748,1.56,2.006,2.818,3.566,3.566l24.9,11.953l-2.1,27.54c-0.132,1.725,0.33,3.444,1.306,4.872l15.59,22.8     L222.106,150.062z" fill="#000000"/>
			<path d="M156.143,94.459h-0.639c1.808-6.282,2.866-14.073,0.162-20.667c-2.057-5.022-5.955-8.59-11.266-10.312     c-1.116-0.363-2.275-0.545-3.444-0.545c-8.197,0-14.258,8.359-21.377,21.854c-3.277,6.219-8.128,11.562-11.286,14.246     c-0.632,0.535-1.202,1.078-1.745,1.621c-3.193-3.117-7.548-5.044-12.351-5.044c-9.762,0-17.7,7.943-17.7,17.705v43.029     c0,9.762,7.941,17.703,17.7,17.703c5.103,0,9.696-2.181,12.929-5.651c3.865,3.434,8.938,5.542,14.504,5.542h36.298     c18.144,0,20.104-12.81,20.104-18.316v-39.275C178.033,104.279,168.213,94.459,156.143,94.459z M96.685,156.344     c0,1.372-1.116,2.485-2.485,2.485c-1.37,0-2.483-1.113-2.483-2.485v-43.029c0-1.372,1.113-2.488,2.483-2.488     c1.372,0,2.485,1.116,2.485,2.488V156.344z M162.822,155.624h-0.005c0,2.442,0,3.099-4.887,3.099h-36.298     c-3.677,0-6.67-2.993-6.67-6.668v-35.706l0.142-0.056l-0.152-0.662c0.061-0.654,0.477-2.693,3.196-5.001     c2.133-1.811,9.508-8.519,14.895-18.745c4.205-7.974,6.825-11.471,8.192-12.973c0.147,0.193,0.256,0.408,0.353,0.647     c1.605,3.916-0.822,12.909-3.989,18.996l-5.79,11.121h24.34c3.677,0,6.673,2.993,6.673,6.673V155.624z" fill="#000000"/>
		</g>
	</g>
</g>
<g>
</g>
<g>
</g>
<g>
</g>
<g>
</g>
<g>
</g>
<g>
</g>
<g>
</g>
<g>
</g>
<g>
</g>
<g>
</g>
<g>
</g>
<g>
</g>
<g>
</g>
<g>
</g>
<g>
</g>
</svg>
