<?xml version="1.0" encoding="iso-8859-1"?>
<!-- Generator: Adobe Illustrator 19.0.0, SVG Export Plug-In . SVG Version: 6.00 Build 0)  -->
<svg xmlns="http://www.w3.org/2000/svg" xmlns:xlink="http://www.w3.org/1999/xlink" version="1.1" id="Layer_1" x="0px" y="0px" viewBox="0 0 512.003 512.003" style="enable-background:new 0 0 512.003 512.003;" xml:space="preserve" width="512px" height="512px">
<g>
	<g>
		<path d="M396.99,258.246c6.699-6.025,10.249-13.653,10.052-21.751c0-23.381-17.271-36.804-47.377-36.804l-14.148,0.026    c-9.378,0-17.553-0.128-25.446-0.597c10.103-23.526,15.804-48.154,16.572-71.748c0-33.323-18.099-40.329-33.271-40.329    c-14.899,0-23.228,10.274-28.826,19.226c-1.877,3.004-6.246,11.597-10.871,20.676c-3.925,7.723-7.825,15.377-9.677,18.577    c-2.722,4.702-5.427,8.823-8.073,12.399l-2.978,3.618c-8.602,10.522-17.425,21.35-28.151,29.303    c-2.202-3.149-5.871-5.222-10.001-5.222h-77.423c-6.699,0-12.177,5.453-12.177,12.151v168.977c0,6.699,5.478,12.151,12.177,12.151    h77.423c5.248,0,9.728-3.328,11.426-7.979c3.328,0.597,6.647,1.152,9.975,1.698l3.046,0.503    c24.525,3.678,51.524,5.777,74.129,5.777h42.223c24.124,0,40.328-14.797,40.303-37.197l-0.196-2.978    c-0.247-3.627-0.35-4.173-1.553-7.151c-0.299-0.725-0.674-1.673-1.178-2.978c9.549-8.704,12.126-20.727,6.997-35.149    C399.541,284.742,402.118,272.693,396.99,258.246z M192.642,354.562h-53.129V209.939h53.129V354.562z M377.065,242.911    c-3.55,2.176-8.422,5.154-8.422,11.179c0,5,2.398,7.927,4.147,10.078c1.673,2.048,2.876,3.55,2.876,7.526    c0,2.697-1.621,3.951-5.649,6.426c-3.55,2.176-8.422,5.154-8.422,11.179c0,5.001,2.398,7.927,4.147,10.078    c1.698,2.048,2.901,3.55,2.901,7.526c0,2.697-1.621,3.951-5.675,6.426c-3.55,2.176-8.422,5.154-8.422,11.179    c0,5.001,2.398,7.927,4.147,10.078c1.698,2.048,2.901,3.55,2.901,7.526c0,8.277-5.376,12.476-16,12.476l-43.273-0.026    c-28.297-1.05-57.523-2.125-85.35-8.422V218.865c18.551-12.177,34.799-27.725,48.247-46.174    c9.148-12.203,15.548-25.301,21.197-36.847c5.871-12.024,11.947-24.448,16.947-24.448c5.402,0,8.951,1.101,8.951,15.974    c0,26.829-12.928,59.878-20.574,75.153c-2.372,4.753-2.5,8.9-0.35,12.373c5.623,9.122,23.979,9.122,68.275,9.122    c23.049,0,23.049,8.747,23.049,12.476C382.714,239.182,381.092,240.437,377.065,242.911z" fill="#000000"/>
	</g>
</g>
<g>
	<g>
		<path d="M506.985,240.787l-22.366-30.259l9.088-36.514c2.714-10.914-2.005-22.323-11.648-28.117L449.811,126.5l-5.581-37.214    c-1.664-11.119-10.402-19.857-21.521-21.521l-37.214-5.581l-19.396-32.247c-4.702-7.825-13.107-12.407-21.931-12.407    c-2.048,0-4.13,0.247-6.187,0.759l-36.514,9.088L271.209,5.011c-4.514-3.337-9.856-5.009-15.206-5.009s-10.692,1.673-15.215,5.009    l-30.259,22.366l-36.514-9.088c-2.057-0.512-4.13-0.759-6.187-0.759c-8.832,0-17.229,4.591-21.939,12.407l-19.396,32.247    l-37.205,5.581c-11.119,1.664-19.849,10.402-21.521,21.521L62.185,126.5l-32.247,19.396c-9.634,5.794-14.362,17.203-11.648,28.117    l9.088,36.514L5.011,240.787c-6.682,9.045-6.682,21.393,0,30.438l22.366,30.259l-9.088,36.514    c-2.714,10.914,2.005,22.323,11.648,28.117l32.247,19.396l5.581,37.214c1.664,11.119,10.402,19.857,21.521,21.521l37.205,5.581    l19.396,32.247c4.702,7.825,13.107,12.407,21.939,12.407c2.048,0,4.122-0.247,6.187-0.759l36.514-9.088l30.259,22.366    c4.523,3.328,9.865,5.001,15.215,5.001s10.692-1.672,15.215-5.009l30.259-22.366l36.514,9.088c2.057,0.512,4.13,0.759,6.187,0.759    c8.832,0,17.229-4.591,21.931-12.407l19.396-32.247l37.214-5.581c11.119-1.664,19.857-10.394,21.521-21.521l5.581-37.214    l32.247-19.396c9.634-5.794,14.362-17.203,11.648-28.117l-9.088-36.514l22.366-30.259    C513.675,262.18,513.675,249.824,506.985,240.787z M456.868,295.955l11.998,48.213l-42.573,25.609l-7.373,49.135l-49.135,7.364    l-25.609,42.581l-48.213-11.998l-39.962,29.542l-39.953-29.534l-48.213,11.998l-25.609-42.581l-49.135-7.364l-7.364-49.135    l-42.573-25.609l11.998-48.213l-29.551-39.962l29.534-39.953l-11.998-48.213l42.573-25.609l7.364-49.135l49.135-7.364    l25.609-42.581l48.213,11.998l39.97-29.542l39.953,29.534l48.213-11.998l25.609,42.581l49.135,7.364l7.373,49.135l42.573,25.609    L456.86,216.04l29.542,39.962L456.868,295.955z" fill="#000000"/>
	</g>
</g>
<g>
</g>
<g>
</g>
<g>
</g>
<g>
</g>
<g>
</g>
<g>
</g>
<g>
</g>
<g>
</g>
<g>
</g>
<g>
</g>
<g>
</g>
<g>
</g>
<g>
</g>
<g>
</g>
<g>
</g>
</svg>
