<?xml version="1.0" encoding="iso-8859-1"?>
<!-- Generator: Adobe Illustrator 16.0.0, SVG Export Plug-In . SVG Version: 6.00 Build 0)  -->
<!DOCTYPE svg PUBLIC "-//W3C//DTD SVG 1.1//EN" "http://www.w3.org/Graphics/SVG/1.1/DTD/svg11.dtd">
<svg xmlns="http://www.w3.org/2000/svg" xmlns:xlink="http://www.w3.org/1999/xlink" version="1.1" id="Capa_1" x="0px" y="0px" width="512px" height="512px" viewBox="0 0 24 24" style="enable-background:new 0 0 24 24;" xml:space="preserve">
<g>
	<g>
		<path d="M20,0H4C1.795,0,0,1.794,0,4v16c0,2.206,1.795,4,4,4h16c2.205,0,4-1.794,4-4V4C24,1.794,22.205,0,20,0z M22,20    c0,1.104-0.896,2-2,2H4c-1.104,0-2-0.896-2-2V4c0-1.103,0.896-2,2-2h16c1.104,0,2,0.897,2,2V20z" fill="#000000"/>
		<path d="M18.604,7h-8.207c-0.553,0-1,0.448-1,1s0.447,1,1,1h8.207c0.554,0,1-0.448,1-1S19.156,7,18.604,7z" fill="#000000"/>
		<path d="M8.109,4.822L6.731,6.471C6.482,6.334,6.2,6.249,5.896,6.249c-0.379,0-0.728,0.124-1.015,0.33L4.743,6.446    C4.544,6.255,4.227,6.261,4.036,6.459C3.844,6.658,3.849,6.974,4.048,7.166l0.218,0.21C4.191,7.57,4.146,7.779,4.146,8    c0,0.965,0.785,1.75,1.75,1.75S7.646,8.965,7.646,8c0-0.295-0.08-0.569-0.21-0.813l1.44-1.723    c0.177-0.212,0.148-0.527-0.063-0.705C8.604,4.583,8.287,4.611,8.109,4.822z M5.896,6.75c0.182,0,0.352,0.043,0.508,0.113    L5.855,7.52L5.262,6.948C5.451,6.833,5.66,6.75,5.896,6.75z M7.146,8c0,0.689-0.561,1.25-1.25,1.25S4.646,8.689,4.646,8    c0-0.076,0.03-0.143,0.043-0.215l0.857,0.827c0.094,0.09,0.219,0.14,0.348,0.14c0.009,0,0.018,0,0.026,0    C6.059,8.744,6.189,8.68,6.277,8.573l0.792-0.948C7.109,7.746,7.146,7.867,7.146,8z" fill="#000000"/>
		<path d="M5.896,10.25c-0.965,0-1.75,0.785-1.75,1.75s0.785,1.75,1.75,1.75s1.75-0.785,1.75-1.75S6.861,10.25,5.896,10.25z     M5.896,13.25c-0.689,0-1.25-0.561-1.25-1.25c0-0.689,0.561-1.25,1.25-1.25s1.25,0.561,1.25,1.25    C7.146,12.689,6.586,13.25,5.896,13.25z" fill="#000000"/>
		<path d="M18.604,11h-8.207c-0.553,0-1,0.448-1,1s0.447,1,1,1h8.207c0.554,0,1-0.448,1-1S19.156,11,18.604,11z" fill="#000000"/>
		<path d="M5.896,14.25c-0.965,0-1.75,0.785-1.75,1.75s0.785,1.75,1.75,1.75s1.75-0.785,1.75-1.75S6.861,14.25,5.896,14.25z     M5.896,17.25c-0.689,0-1.25-0.561-1.25-1.25s0.561-1.25,1.25-1.25s1.25,0.561,1.25,1.25S6.586,17.25,5.896,17.25z" fill="#000000"/>
		<path d="M18.604,15h-8.207c-0.553,0-1,0.448-1,1s0.447,1,1,1h8.207c0.554,0,1-0.448,1-1S19.156,15,18.604,15z" fill="#000000"/>
	</g>
</g>
<g>
</g>
<g>
</g>
<g>
</g>
<g>
</g>
<g>
</g>
<g>
</g>
<g>
</g>
<g>
</g>
<g>
</g>
<g>
</g>
<g>
</g>
<g>
</g>
<g>
</g>
<g>
</g>
<g>
</g>
</svg>
