<?xml version="1.0" encoding="iso-8859-1"?>
<!-- Generator: Adobe Illustrator 19.0.0, SVG Export Plug-In . SVG Version: 6.00 Build 0)  -->
<svg xmlns="http://www.w3.org/2000/svg" xmlns:xlink="http://www.w3.org/1999/xlink" version="1.1" id="Layer_1" x="0px" y="0px" viewBox="0 0 512 512" style="enable-background:new 0 0 512 512;" xml:space="preserve" width="512px" height="512px">
<g>
	<g>
		<g>
			<path d="M0,0v512h512V0H0z M496.138,496.138H15.862V15.862h480.277V496.138z" fill="#000000"/>
			<path d="M68.642,150.438H52.78c0,50.939,41.442,92.38,92.38,92.38c50.939,0,92.381-41.44,92.381-92.379     s-41.442-92.38-92.38-92.38c-25.642,0-49.471,10.251-67.097,28.866L89.582,97.83c14.599-15.42,34.337-23.911,55.578-23.911     c42.193,0,76.518,34.326,76.518,76.519s-34.326,76.518-76.518,76.518S68.642,192.63,68.642,150.438z" fill="#000000"/>
			<polygon points="113.822,150.109 102.607,161.325 134.604,193.322 198.271,129.656 187.056,118.441 134.604,170.891    " fill="#000000"/>
			<path d="M98.637,131.649l14.721,5.909c5.221-13.008,17.705-21.413,31.804-21.414v-15.862     C124.546,100.282,106.285,112.595,98.637,131.649z" fill="#000000"/>
			<path d="M274.46,150.438c0,50.939,41.442,92.38,92.38,92.38c50.938,0,92.38-41.441,92.38-92.38     c0-50.939-41.441-92.38-92.38-92.38S274.46,99.499,274.46,150.438z M366.84,73.92c42.192,0,76.518,34.326,76.518,76.519     s-34.326,76.518-76.518,76.518s-76.518-34.326-76.518-76.518S324.648,73.92,366.84,73.92z" fill="#000000"/>
			<path d="M366.84,116.144v-15.862c-20.615,0-38.876,12.313-46.524,31.367l14.721,5.909     C340.257,124.551,352.741,116.145,366.84,116.144z" fill="#000000"/>
			<path d="M366.84,269.181c-28.199,0-54.489,12.627-72.13,34.642l12.378,9.919c14.614-18.239,36.393-28.699,59.752-28.699     c42.193,0,76.518,34.326,76.518,76.518s-34.326,76.518-76.518,76.518s-76.518-34.327-76.518-76.518H274.46     c0,50.939,41.442,92.38,92.38,92.38c50.938,0,92.38-41.441,92.38-92.38S417.778,269.181,366.84,269.181z" fill="#000000"/>
			<polygon points="335.5,361.231 324.285,372.447 356.283,404.446 419.95,340.779 408.735,329.563 356.283,382.014    " fill="#000000"/>
			<path d="M320.316,342.774l14.721,5.908c5.221-13.009,17.705-21.414,31.804-21.414v-15.862     C346.225,311.406,327.964,323.719,320.316,342.774z" fill="#000000"/>
			<path d="M237.54,361.561c0-50.939-41.441-92.38-92.38-92.38s-92.38,41.441-92.38,92.38s41.442,92.38,92.38,92.38     C196.099,453.941,237.54,412.5,237.54,361.561z M145.16,438.081c-42.193,0-76.519-34.326-76.519-76.518     s34.327-76.519,76.519-76.519c42.193,0,76.518,34.326,76.518,76.519S187.353,438.081,145.16,438.081z" fill="#000000"/>
			<path d="M98.637,342.774l14.721,5.908c5.221-13.009,17.705-21.414,31.804-21.414v-15.862     C124.546,311.406,106.285,323.719,98.637,342.774z" fill="#000000"/>
			<rect x="34.321" y="36.946" width="21.113" height="15.862" fill="#000000"/>
			<rect x="456.571" y="36.946" width="21.112" height="15.862" fill="#000000"/>
			<rect x="34.321" y="459.194" width="21.113" height="15.862" fill="#000000"/>
			<rect x="456.571" y="459.194" width="21.112" height="15.862" fill="#000000"/>
			<rect x="229.613" y="459.194" width="52.781" height="15.862" fill="#000000"/>
			<rect x="292.943" y="459.194" width="21.112" height="15.862" fill="#000000"/>
			<rect x="197.942" y="459.194" width="21.112" height="15.862" fill="#000000"/>
			<rect x="229.613" y="36.946" width="52.781" height="15.862" fill="#000000"/>
			<rect x="292.943" y="36.946" width="21.112" height="15.862" fill="#000000"/>
			<rect x="197.942" y="36.946" width="21.112" height="15.862" fill="#000000"/>
		</g>
	</g>
</g>
<g>
</g>
<g>
</g>
<g>
</g>
<g>
</g>
<g>
</g>
<g>
</g>
<g>
</g>
<g>
</g>
<g>
</g>
<g>
</g>
<g>
</g>
<g>
</g>
<g>
</g>
<g>
</g>
<g>
</g>
</svg>
