<?xml version="1.0" encoding="iso-8859-1"?>
<!-- Generator: Adobe Illustrator 19.0.0, SVG Export Plug-In . SVG Version: 6.00 Build 0)  -->
<svg xmlns="http://www.w3.org/2000/svg" xmlns:xlink="http://www.w3.org/1999/xlink" version="1.1" id="Layer_1" x="0px" y="0px" viewBox="0 0 512 512" style="enable-background:new 0 0 512 512;" xml:space="preserve" width="512px" height="512px">
<g>
	<g>
		<path d="M495.055,307.33l-121.274,29.41v-43.655l-140.178-35.102L89.53,280.333H0v206.546h105.536v-42.653l74.011-8.301    l143.401,40.256L512,371.983L495.055,307.33z M75.087,447.64v8.79H30.449V310.782h44.637V447.64z M319.172,443.493    l-137.115-38.491l-76.521,8.584V308.663l126.646-19.647l111.149,27.833v19.864l-85.273-20.797l-7.213,29.582l107.701,26.266    l114.634-27.798l3.354,12.796L319.172,443.493z" fill="#000000"/>
	</g>
</g>
<g>
	<g>
		<path d="M327.814,25.122h-71.051H130.757v68.792v71.05v68.792h126.007h71.051v0.001h126.007v-68.792V93.913V25.122H327.814z     M161.206,55.571h95.558v38.343h-95.558V55.571z M256.763,203.307h-95.558v0v-38.343h95.558V203.307z M256.764,134.515h-95.557    v-10.152h95.557V134.515z M297.365,93.913v71.05v38.343h-10.153v-38.343v-71.05V55.571h10.153V93.913z M327.814,124.362h95.557    v10.152h-95.557V124.362z M423.373,203.307h-95.557v-38.343h95.557V203.307z M423.373,93.913h-95.557V55.571h95.557V93.913z" fill="#000000"/>
	</g>
</g>
<g>
</g>
<g>
</g>
<g>
</g>
<g>
</g>
<g>
</g>
<g>
</g>
<g>
</g>
<g>
</g>
<g>
</g>
<g>
</g>
<g>
</g>
<g>
</g>
<g>
</g>
<g>
</g>
<g>
</g>
</svg>
