<?xml version="1.0" encoding="iso-8859-1"?>
<!-- Generator: Adobe Illustrator 19.0.0, SVG Export Plug-In . SVG Version: 6.00 Build 0)  -->
<svg xmlns="http://www.w3.org/2000/svg" xmlns:xlink="http://www.w3.org/1999/xlink" version="1.1" id="Capa_1" x="0px" y="0px" viewBox="0 0 512 512" style="enable-background:new 0 0 512 512;" xml:space="preserve" width="512px" height="512px">
<g>
	<g>
		<path d="M416.352,221.776c2.802-2.154,5.513-4.457,8.095-6.947C442.215,197.692,452,175.024,452,151c0-49.65-42.108-90-92-90    c-49.626,0-90,40.374-90,90c0,28.624,13.433,54.168,34.325,70.664c-18.305,7.305-35.094,18.208-49.388,32.266    c-14.041-13.764-30.764-24.797-49.308-32.229C226.547,205.206,240,179.645,240,151c0-49.626-40.374-90-90-90    c-49.626,0-90,40.374-90,90c0,28.645,13.453,54.206,34.371,70.701C39.123,243.843,0,297.936,0,361v75c0,8.284,6.716,15,15,15    c21.258,0,461.133,0,482,0c8.284,0,15-6.716,15-15v-75C512,296.567,470.625,243.405,416.352,221.776z M300,151    c0-33.084,26.916-60,60-60c33.607,0,62,27.477,62,60s-28.393,60-62,60C326.916,211,300,184.084,300,151z M395.158,246.087    l-34.987,33.871l-34.095-34.094C336.951,242.672,348.353,241,360,241C372.219,241,384.02,242.784,395.158,246.087z M90,151    c0-33.084,26.916-60,60-60s60,26.916,60,60s-26.916,60-60,60S90,184.084,90,151z M30,421v-60    c0-47.393,27.619-88.453,67.604-107.941l21.791,36.112l-14.244,99.708c-0.521,3.653,0.321,7.371,2.369,10.441L121.973,421H30z     M150,408.958l-14.34-21.511L148.01,301h3.98l12.35,86.448L150,408.958z M156.532,271h-13.064l-16.732-27.729    C134.265,241.786,142.042,241,150,241s15.735,0.786,23.264,2.271L156.532,271z M270,421c-9.253,0-82.098,0-91.973,0l14.453-21.68    c2.048-3.07,2.891-6.788,2.369-10.441l-14.244-99.708l21.791-36.112C242.381,272.547,270,313.607,270,361V421z M482,421H300v-60    c0-31.075-9.5-59.973-25.747-83.943c6.814-6.972,14.37-13.033,22.504-18.086l52.636,52.636c5.789,5.789,15.153,5.868,21.04,0.171    l54.224-52.493C459.07,280.525,482,318.175,482,361V421z" fill="#000000"/>
	</g>
</g>
<g>
	<g>
		<path d="M438,331h-30c-8.284,0-15,6.716-15,15s6.716,15,15,15h30c8.284,0,15-6.716,15-15S446.284,331,438,331z" fill="#000000"/>
	</g>
</g>
<g>
</g>
<g>
</g>
<g>
</g>
<g>
</g>
<g>
</g>
<g>
</g>
<g>
</g>
<g>
</g>
<g>
</g>
<g>
</g>
<g>
</g>
<g>
</g>
<g>
</g>
<g>
</g>
<g>
</g>
</svg>
