<?xml version="1.0" encoding="iso-8859-1"?>
<!-- Generator: Adobe Illustrator 19.0.0, SVG Export Plug-In . SVG Version: 6.00 Build 0)  -->
<svg xmlns="http://www.w3.org/2000/svg" xmlns:xlink="http://www.w3.org/1999/xlink" version="1.1" id="Layer_1" x="0px" y="0px" viewBox="0 0 512 512" style="enable-background:new 0 0 512 512;" xml:space="preserve" width="512px" height="512px">
<g>
	<g>
		<path d="M481.583,157.313H30.417H0v319.043h512V157.313H481.583z M112.558,343.081L91.05,364.589l-47.756-47.755l47.756-47.755    l21.508,21.508L86.31,316.834L112.558,343.081z M363.445,263.046h-40.731v156.979h-133.43V263.046h-40.733v-49.404h68.926    c1.813,19.685,18.363,35.101,38.52,35.101c20.158,0,36.708-15.416,38.52-35.101h68.926V263.046z M420.95,364.589l-21.508-21.508    l26.248-26.247l-26.248-26.247l21.508-21.508l47.756,47.755L420.95,364.589z" fill="#000000"/>
	</g>
</g>
<g>
	<g>
		<path d="M0,35.644v91.252h30.417h451.166H512V35.644H0z M78.059,96.478H47.135V66.061h30.924V96.478z M129.261,96.478H98.337    V66.061h30.924V96.478z M180.463,96.478h-30.924V66.061h30.924V96.478z" fill="#000000"/>
	</g>
</g>
<g>
</g>
<g>
</g>
<g>
</g>
<g>
</g>
<g>
</g>
<g>
</g>
<g>
</g>
<g>
</g>
<g>
</g>
<g>
</g>
<g>
</g>
<g>
</g>
<g>
</g>
<g>
</g>
<g>
</g>
</svg>
