<?xml version="1.0" encoding="iso-8859-1"?>
<!-- Generator: Adobe Illustrator 16.0.0, SVG Export Plug-In . SVG Version: 6.00 Build 0)  -->
<!DOCTYPE svg PUBLIC "-//W3C//DTD SVG 1.1//EN" "http://www.w3.org/Graphics/SVG/1.1/DTD/svg11.dtd">
<svg xmlns="http://www.w3.org/2000/svg" xmlns:xlink="http://www.w3.org/1999/xlink" version="1.1" id="Capa_1" x="0px" y="0px" width="512px" height="512px" viewBox="0 0 124.562 124.562" style="enable-background:new 0 0 124.562 124.562;" xml:space="preserve">
<g>
	<g>
		<circle cx="62.4" cy="12.889" r="12.889" fill="#000000"/>
		<path d="M23.417,33.073c-0.854,0-1.201,0.774-1.254,1.321h2.403C24.565,33.9,24.352,33.073,23.417,33.073z" fill="#000000"/>
		<path d="M113.277,34.394c0-6.353-5.15-11.503-11.503-11.503S90.27,28.041,90.27,34.394c0,4.411,2.485,8.237,6.129,10.167    c-9.714-0.857-15.444-6.354-20.112-10.854c-1.607-1.548-3.048-2.929-4.531-4.004c-1.748-1.534-3.918-2.63-6.146-3.177l-3.21,3.232    l-3.114-3.268c-0.011,0.002-0.021,0.003-0.031,0.006c-2.01,0.48-3.971,1.416-5.625,2.713c-1.758,1.129-3.41,2.69-5.287,4.498    c-4.883,4.706-10.929,10.502-21.479,10.938c4.337-1.647,7.427-5.831,7.427-10.746c0-6.353-5.15-11.503-11.503-11.503    s-11.503,5.15-11.503,11.503s5.15,11.503,11.503,11.503c0.102,0,0.202-0.013,0.303-0.015c-1.484,0.868-2.492,2.461-2.492,4.304    c0,2.764,2.241,5.004,5.004,5.004c10.627,0,18.184-4.118,23.605-8.363v19.85c0,1.596,0.366,3.062,0.996,4.385    c-0.001,0.054-0.017,0.104-0.017,0.158l-0.042,47.918c-0.002,3.265,2.643,5.916,5.908,5.919c0.002,0,0.003,0,0.005,0    c3.264,0,5.912-2.645,5.914-5.909l0.036-41.115c0.131,0.003,0.261,0.018,0.392,0.018c0.153,0,0.304-0.016,0.457-0.02    l-0.001,41.112c0,3.267,2.647,5.914,5.914,5.914c3.266,0,5.913-2.647,5.913-5.914l0.003-47.917c0-0.104-0.025-0.197-0.03-0.299    c0.592-1.286,0.936-2.707,0.936-4.25V46.464c5.41,4.199,12.918,8.232,23.437,8.232c2.765,0,5.004-2.24,5.004-5.004    c0-1.54-0.71-2.9-1.804-3.818C108.368,45.634,113.277,40.594,113.277,34.394z M29.308,35.822    c-1.348-0.454-1.869-1.188-1.855-1.962c0-1.215,1.041-2.136,2.657-2.136c0.761,0,1.442,0.173,1.843,0.374l-0.36,1.402    c-0.294-0.161-0.854-0.374-1.416-0.374c-0.494,0-0.774,0.2-0.774,0.534c0,0.307,0.253,0.467,1.055,0.748    c1.242,0.427,1.762,1.054,1.776,2.016c0,1.215-0.961,2.109-2.831,2.109c-0.854,0-1.616-0.187-2.109-0.455l0.36-1.455    c0.374,0.228,1.148,0.494,1.749,0.494c0.614,0,0.868-0.213,0.868-0.547C30.27,36.237,30.07,36.076,29.308,35.822z M18.193,38.399    h-2.029v-3.685l-2.844-5.313h2.323l0.921,2.163c0.28,0.655,0.467,1.135,0.694,1.723h0.027c0.201-0.561,0.414-1.082,0.681-1.723    l0.908-2.163h2.283l-2.964,5.247V38.399z M20.239,35.209c0-1.656,1.028-3.485,3.297-3.485c2.109,0,2.911,1.642,2.911,3.257    c0,0.348-0.04,0.655-0.067,0.801h-4.205c0.066,0.841,0.895,1.242,1.842,1.242c0.694,0,1.255-0.094,1.803-0.267l0.267,1.375    c-0.667,0.267-1.481,0.4-2.363,0.4C21.508,38.533,20.239,37.251,20.239,35.209z M62.43,55.268h-0.06l-3.108-4.254l3.108-20.777    h0.06l0.484,3.235c0.011,0.163,0.046,0.32,0.072,0.479l2.552,17.063L62.43,55.268z M94.737,29.153h2.376l1.869,3.297    c0.533,0.948,1.068,2.069,1.469,3.084h0.04c-0.134-1.188-0.174-2.404-0.174-3.752v-2.63h1.869v8.998h-2.136l-1.922-3.471    c-0.535-0.962-1.123-2.123-1.562-3.178l-0.041,0.013c0.054,1.188,0.081,2.457,0.081,3.926v2.71h-1.869V29.153z M106.851,38.298    c-1.909,0-3.377-1.255-3.377-3.365c0-2.109,1.388-3.458,3.484-3.458c2.002,0,3.338,1.375,3.338,3.337    C110.296,37.203,108.601,38.298,106.851,38.298z" fill="#000000"/>
		<path d="M106.905,32.918c-0.976,0-1.335,1.001-1.335,1.962c0,1.122,0.467,1.963,1.335,1.963c0.788,0,1.295-0.788,1.295-1.963    C108.2,33.906,107.826,32.918,106.905,32.918z" fill="#000000"/>
	</g>
</g>
<g>
</g>
<g>
</g>
<g>
</g>
<g>
</g>
<g>
</g>
<g>
</g>
<g>
</g>
<g>
</g>
<g>
</g>
<g>
</g>
<g>
</g>
<g>
</g>
<g>
</g>
<g>
</g>
<g>
</g>
</svg>
