<?xml version="1.0" encoding="iso-8859-1"?>
<!-- Generator: Adobe Illustrator 19.0.0, SVG Export Plug-In . SVG Version: 6.00 Build 0)  -->
<svg xmlns="http://www.w3.org/2000/svg" xmlns:xlink="http://www.w3.org/1999/xlink" version="1.1" id="Layer_1" x="0px" y="0px" viewBox="0 0 512 512" style="enable-background:new 0 0 512 512;" xml:space="preserve" width="512px" height="512px">
<g>
	<g>
		<rect x="47.137" y="81.275" width="30.924" height="30.417" fill="#000000"/>
	</g>
</g>
<g>
	<g>
		<rect x="98.339" y="81.275" width="30.924" height="30.417" fill="#000000"/>
	</g>
</g>
<g>
	<g>
		<rect x="149.541" y="81.275" width="30.924" height="30.417" fill="#000000"/>
	</g>
</g>
<g>
	<g>
		<path d="M0,35.644v91.252v30.417v319.043h512V157.313v-30.417V35.644H0z M481.583,445.939H30.417V157.313h451.166V445.939z     M481.583,126.896H30.417V66.061h451.166V126.896z" fill="#000000"/>
	</g>
</g>
<g>
	<g>
		<polygon points="112.558,275.378 91.05,253.87 43.294,301.625 91.05,349.38 112.558,327.872 86.31,301.625   " fill="#000000"/>
	</g>
</g>
<g>
	<g>
		<polygon points="420.95,253.87 399.442,275.378 425.69,301.625 399.442,327.872 420.95,349.38 468.705,301.625   " fill="#000000"/>
	</g>
</g>
<g>
	<g>
		<path d="M305.005,182.998h-98.01h-73.34v100.139h35.579v137.116h173.532V283.137h35.579V182.998H305.005z M273.888,213.415    c-2.21,7.797-9.393,13.527-17.888,13.527c-8.496,0-15.678-5.73-17.888-13.527H273.888z M347.927,252.72h-35.579v137.116H199.651    V252.72h-35.579v-39.304h43.183c2.541,24.652,23.431,43.944,48.745,43.944s46.203-19.292,48.745-43.944h43.183V252.72z" fill="#000000"/>
	</g>
</g>
<g>
</g>
<g>
</g>
<g>
</g>
<g>
</g>
<g>
</g>
<g>
</g>
<g>
</g>
<g>
</g>
<g>
</g>
<g>
</g>
<g>
</g>
<g>
</g>
<g>
</g>
<g>
</g>
<g>
</g>
</svg>
