<?xml version="1.0" encoding="iso-8859-1"?>
<!-- Generator: Adobe Illustrator 16.0.0, SVG Export Plug-In . SVG Version: 6.00 Build 0)  -->
<!DOCTYPE svg PUBLIC "-//W3C//DTD SVG 1.1//EN" "http://www.w3.org/Graphics/SVG/1.1/DTD/svg11.dtd">
<svg xmlns="http://www.w3.org/2000/svg" xmlns:xlink="http://www.w3.org/1999/xlink" version="1.1" id="Capa_1" x="0px" y="0px" width="512px" height="512px" viewBox="0 0 106.048 106.048" style="enable-background:new 0 0 106.048 106.048;" xml:space="preserve">
<g>
	<path d="M56.473,19.061h-6.885c0.663-1.24,1.924-2.107,3.446-2.107   C54.536,16.945,55.799,17.815,56.473,19.061z M106.048,21.209v63.629c0,11.666-9.538,21.21-21.21,21.21H21.209   C9.548,106.048,0,96.504,0,84.838V21.209C0,9.543,9.548,0,21.209,0h63.628C96.51,0,106.048,9.543,106.048,21.209z M81.017,20.891   H69.614v-1.83h-9.196c-0.828-3.324-3.811-5.805-7.395-5.805c-3.583,0-6.558,2.48-7.386,5.805h-9.199v1.83h-11.4v71.901h55.978   V20.891L81.017,20.891z M69.614,26.799h5.235v60.09H31.203v-60.09h5.235v3.638h33.176V26.799z M46.937,46.556l-8.236,8.239   l4.593,4.588l8.233-8.236l8.238,8.236l4.588-4.588l-8.233-8.239l8.233-8.236l-4.588-4.588l-8.238,8.236l-8.228-8.236l-4.598,4.593   L46.937,46.556z M68.672,64.343l-4.375-4.458L49.646,72.053l-5.45-5.918l-6.007,6.027l11.335,11.335L68.672,64.343z" fill="#000000"/>
</g>
<g>
</g>
<g>
</g>
<g>
</g>
<g>
</g>
<g>
</g>
<g>
</g>
<g>
</g>
<g>
</g>
<g>
</g>
<g>
</g>
<g>
</g>
<g>
</g>
<g>
</g>
<g>
</g>
<g>
</g>
</svg>
