<?xml version="1.0" encoding="iso-8859-1"?>
<!-- Generator: Adobe Illustrator 18.0.0, SVG Export Plug-In . SVG Version: 6.00 Build 0)  -->
<!DOCTYPE svg PUBLIC "-//W3C//DTD SVG 1.1//EN" "http://www.w3.org/Graphics/SVG/1.1/DTD/svg11.dtd">
<svg xmlns="http://www.w3.org/2000/svg" xmlns:xlink="http://www.w3.org/1999/xlink" version="1.1" id="Capa_1" x="0px" y="0px" viewBox="0 0 297 297" style="enable-background:new 0 0 297 297;" xml:space="preserve" width="512px" height="512px">
<g>
	<path d="M286.794,4.77H10.206C4.57,4.77,0,9.339,0,14.975v134.197c0,5.636,4.57,10.205,10.206,10.205h50.513v39.613   c0,26.036,17.346,38.517,33.212,42.207v40.826c0,5.636,4.57,10.206,10.205,10.206s10.205-4.57,10.205-10.206v-49.821   c0-5.636-4.499-10.206-10.135-10.206c-3.854-0.055-23.077-1.424-23.077-23.007v-39.613h85.062   c-3.598,6.072-5.84,13.661-5.84,23.005c0,5.636,4.57,10.206,10.206,10.206c5.636,0,10.206-4.57,10.206-10.206   c0-21.582,19.221-22.95,23.004-23.005h0.002c5.636,0,10.206-4.57,10.206-10.205c0-0.013-0.002-0.026-0.002-0.039V99.352   c0-6.583,5.354-11.938,11.935-11.938h5.536c6.581,0,11.935,5.355,11.935,11.938v83.031c0,0.101-0.141,10.326-5.15,20.346   c-6.482,12.966-17.755,19.269-34.462,19.269c-5.636,0-10.205,4.57-10.205,10.206v49.821c0,5.636,4.57,10.206,10.205,10.206   c5.636,0,10.206-4.57,10.206-10.206v-40.266c24.098-3.197,36.358-17.593,42.512-29.901c7.222-14.444,7.304-28.867,7.304-29.474   v-23.005h23.005c5.636,0,10.206-4.57,10.206-10.205V14.975C297,9.339,292.43,4.77,286.794,4.77z M231.444,67.003h-5.536   c-17.836,0-32.346,14.512-32.346,32.349v39.615H43.871l-23.46-23.463V48.643L43.87,25.181h209.26l23.459,23.461v66.862   l-12.8,12.801V99.352C263.789,81.515,249.279,67.003,231.444,67.003z" fill="#000000"/>
	<path d="M148.5,38.655c-23.939,0-43.415,19.477-43.415,43.418s19.476,43.419,43.415,43.419c23.94,0,43.416-19.478,43.416-43.419   S172.44,38.655,148.5,38.655z M148.5,105.082c-12.684,0-23.004-10.321-23.004-23.008c0-12.686,10.32-23.007,23.004-23.007   c12.685,0,23.005,10.321,23.005,23.007C171.505,94.761,161.185,105.082,148.5,105.082z" fill="#000000"/>
	<path d="M73.777,71.868H40.565c-5.636,0-10.206,4.57-10.206,10.206s4.57,10.205,10.206,10.205h33.212   c5.636,0,10.205-4.57,10.205-10.205S79.413,71.868,73.777,71.868z" fill="#000000"/>
</g>
<g>
</g>
<g>
</g>
<g>
</g>
<g>
</g>
<g>
</g>
<g>
</g>
<g>
</g>
<g>
</g>
<g>
</g>
<g>
</g>
<g>
</g>
<g>
</g>
<g>
</g>
<g>
</g>
<g>
</g>
</svg>
