<svg id="03633f4d-e57b-4865-bdae-d2d4903af6db" data-name="Capa 1" xmlns="http://www.w3.org/2000/svg" viewBox="0 0 398.91 515.95"><title>shopagree-033-commerce</title><path d="M399.53,512H112.47a55.69,55.69,0,0,1-55.92-55.92v-1.24L81.4,130.49c1.24-9.94,8.7-17.4,18.64-17.4H412c9.94,0,17.4,7.46,18.64,17.4l24.85,324.35v1.24A55.69,55.69,0,0,1,399.53,512ZM93.83,457.32A19.11,19.11,0,0,0,112.47,476H399.53a18.3,18.3,0,0,0,18.64-18.64L394.56,151.61H117.44Z" transform="translate(-56.54)"/><path d="M337.4,149.13a19.11,19.11,0,0,1-18.64-18.64V99.42c0-34.8-27.34-62.14-62.14-62.14s-62.14,27.34-62.14,62.14v31.07a18.64,18.64,0,1,1-37.28,0V99.42C157.2,44.74,201.94,0,256.62,0S356,44.74,356,99.42v31.07A19.11,19.11,0,0,1,337.4,149.13Z" transform="translate(-56.54)"/><circle cx="118.06" cy="198.84" r="22.37"/><circle cx="280.85" cy="198.84" r="22.37"/><text transform="translate(90.06 446)" style="font-size:250px;font-family:.SFNSText, System Font">✓</text></svg>