<?xml version="1.0" encoding="iso-8859-1"?>
<!-- Generator: Adobe Illustrator 19.0.0, SVG Export Plug-In . SVG Version: 6.00 Build 0)  -->
<svg xmlns="http://www.w3.org/2000/svg" xmlns:xlink="http://www.w3.org/1999/xlink" version="1.1" id="Layer_1" x="0px" y="0px" viewBox="0 0 488 488" style="enable-background:new 0 0 488 488;" xml:space="preserve" width="512px" height="512px">
<g>
	<g>
		<path d="M408.8,103.5c-0.3-3.1-2.9-5.5-6-5.5h-67.2v-6.3c0-50.5-41.1-91.7-91.7-91.7c-50.6,0-91.7,41.1-91.7,91.7V98H85.1    c-3.1,0-5.7,2.4-6,5.5L50.3,428.3c0,0.2,0,0.4,0,0.5c0,32.6,30.4,59.2,67.7,59.2h252c37.3,0,67.7-26.5,67.7-59.2    c0-0.2,0-0.4,0-0.5L408.8,103.5z M164.3,91.7C164.3,47.8,200,12,244,12s79.7,35.7,79.7,79.7V98H164.3V91.7z M370,476H118    c-30.6,0-55.5-21-55.7-46.9L90.6,110h61.7v50.1c0,3.3,2.7,6,6,6c3.3,0,6-2.7,6-6V110h159.3v50.1c0,3.3,2.7,6,6,6s6-2.7,6-6V110    h61.7l28.3,319.1C425.5,455,400.6,476,370,476z" fill="#000000"/>
	</g>
</g>
<g>
	<g>
		<path d="M308.7,257.3c-2.3-2.4-6.1-2.4-8.4-0.1l-78,78l-34.5-34.5c-2.3-2.3-6.1-2.3-8.5,0c-2.3,2.3-2.3,6.1,0,8.5l38.8,38.8    c1.2,1.2,2.7,1.8,4.2,1.8s3.1-0.6,4.2-1.8l82.2-82.2C311,263.5,311,259.7,308.7,257.3z" fill="#000000"/>
	</g>
</g>
<g>
</g>
<g>
</g>
<g>
</g>
<g>
</g>
<g>
</g>
<g>
</g>
<g>
</g>
<g>
</g>
<g>
</g>
<g>
</g>
<g>
</g>
<g>
</g>
<g>
</g>
<g>
</g>
<g>
</g>
</svg>
