<svg id="d8dc69ef-1301-4a6a-9cdb-eebbc4a72a42" data-name="Layer 1" xmlns="http://www.w3.org/2000/svg" viewBox="0 0 512 512"><title>shopagree-010-bag-5</title><path d="M500.36,116.36H395.64V58.18A11.63,11.63,0,0,0,392.23,50L345.68,3.41A11.63,11.63,0,0,0,337.45,0H174.55a11.63,11.63,0,0,0-8.23,3.41L119.77,50a11.63,11.63,0,0,0-3.41,8.23v58.18H11.64A11.63,11.63,0,0,0,0,128V465.45A46.59,46.59,0,0,0,46.55,512H465.46A46.59,46.59,0,0,0,512,465.45V128A11.63,11.63,0,0,0,500.36,116.36ZM349.09,39.73,372.36,63v53.36H349.09ZM186.18,23.27H325.82V46.54H186.18V23.27Zm0,46.55H325.82v46.55H186.18V69.82ZM139.64,63l23.27-23.27v76.64H139.64ZM488.73,465.46a23.3,23.3,0,0,1-23.27,23.27H46.55a23.3,23.3,0,0,1-23.27-23.27V139.64H488.73Z"/><path d="M223.28,415q-16.87-16.87-29.36-29.27T169,361q-12.48-12.3-29.36-29.18l19.16-19.34,64.51,64.34L361.09,239.4l19,19.51Z"/></svg>